<?xml version="1.0" encoding="UTF-8"?>
<!-- Generator: visioncortex VTracer 0.6.5 -->
<svg version="1.1" xmlns="http://www.w3.org/2000/svg" width="512" height="512">
<path d="M0 0 C168.96 0 337.92 0 512 0 C512 168.96 512 337.92 512 512 C343.04 512 174.08 512 0 512 C0 343.04 0 174.08 0 0 Z " fill="#FEFEFE" transform="translate(0,0)"/>
<path d="M0 0 C1.1 0.94 2.21 1.88 3.31 2.81 C3.92 3.34 4.53 3.86 5.17 4.4 C7.95 6.83 10.55 9.43 13.15 12.05 C13.7 12.6 14.24 13.15 14.8 13.71 C16.52 15.43 18.23 17.15 19.94 18.88 C21.11 20.05 22.28 21.23 23.46 22.41 C26.31 25.27 29.15 28.13 32 31 C30.69 33.94 29.34 35.86 26.95 38 C26.64 38.27 26.64 38.27 25.1 39.67 C24.45 40.25 23.8 40.84 23.12 41.44 C18.12 46.01 13.3 50.66 8.75 55.69 C2.18 62.94 -4.51 70.12 -12 76.44 C-16.57 80.32 -20.49 84.78 -24.48 89.23 C-26.6 91.56 -28.75 93.8 -31 96 C-29.38 100.1 -26.43 102.83 -23.36 105.87 C-22.78 106.45 -22.21 107.02 -21.61 107.62 C-19.71 109.51 -17.81 111.41 -15.9 113.3 C-14.58 114.61 -13.26 115.93 -11.94 117.25 C-8.47 120.71 -4.99 124.17 -1.51 127.62 C2.04 131.15 5.58 134.69 9.12 138.22 C16.08 145.15 23.04 152.08 30 159 C34.18 157.36 36.96 154.3 40.05 151.17 C40.65 150.58 41.24 149.98 41.86 149.37 C43.82 147.4 45.78 145.43 47.73 143.46 C49.1 142.1 50.46 140.73 51.82 139.37 C55.4 135.78 58.98 132.18 62.55 128.59 C66.2 124.92 69.86 121.25 73.51 117.59 C80.68 110.4 87.84 103.2 95 96 C97.86 97.3 99.91 98.66 102.12 100.89 C102.41 101.18 102.41 101.18 103.87 102.65 C104.49 103.27 105.1 103.9 105.73 104.54 C106.37 105.18 107.01 105.82 107.67 106.48 C109.7 108.52 111.73 110.57 113.75 112.62 C115.13 114.01 116.51 115.4 117.89 116.79 C121.26 120.19 124.63 123.59 128 127 C127.06 128.11 126.12 129.22 125.18 130.33 C124.66 130.95 124.13 131.56 123.6 132.2 C121.31 134.78 118.77 137.03 116.19 139.31 C112.52 142.6 109.06 145.92 105.81 149.62 C101.5 154.55 96.93 159.18 92.31 163.81 C91.59 164.54 90.86 165.27 90.11 166.02 C87.07 169.06 84.03 172.05 80.7 174.77 C78.37 176.7 76.49 178.56 74.56 180.88 C71.23 184.79 67.67 188.41 64 192 C69.8 199.11 76.34 205.47 82.84 211.93 C84.08 213.18 85.33 214.42 86.58 215.67 C89.84 218.93 93.11 222.18 96.37 225.44 C99.71 228.77 103.05 232.1 106.39 235.44 C112.92 241.96 119.46 248.48 126 255 C124.7 257.86 123.34 259.91 121.11 262.12 C120.53 262.7 119.95 263.28 119.35 263.87 C119.04 264.18 119.04 264.18 117.46 265.73 C116.82 266.37 116.18 267.01 115.52 267.67 C113.48 269.7 111.43 271.73 109.38 273.75 C107.99 275.13 106.6 276.51 105.21 277.89 C101.81 281.26 98.41 284.63 95 288 C90.86 286.37 88.1 283.37 85.04 280.27 C84.45 279.68 83.87 279.09 83.26 278.49 C81.33 276.56 79.41 274.62 77.48 272.68 C76.15 271.34 74.81 269.99 73.47 268.65 C69.94 265.12 66.43 261.59 62.91 258.05 C59.32 254.44 55.73 250.84 52.13 247.23 C45.08 240.16 38.04 233.08 31 226 C26.46 229.8 22.14 233.72 17.97 237.91 C17.69 238.19 17.69 238.19 16.29 239.6 C14.47 241.42 12.66 243.24 10.85 245.05 C9.58 246.32 8.31 247.59 7.04 248.86 C3.73 252.18 0.41 255.51 -2.9 258.84 C-6.29 262.24 -9.69 265.63 -13.08 269.03 C-19.72 275.68 -26.36 282.34 -33 289 C-27.2 296.11 -20.66 302.47 -14.16 308.93 C-12.92 310.18 -11.67 311.42 -10.42 312.67 C-7.16 315.93 -3.89 319.18 -0.63 322.44 C2.71 325.77 6.05 329.1 9.39 332.44 C15.92 338.96 22.46 345.48 29 352 C27.7 354.86 26.34 356.91 24.11 359.12 C23.53 359.7 22.95 360.28 22.35 360.87 C22.04 361.18 22.04 361.18 20.46 362.73 C19.82 363.37 19.18 364.01 18.52 364.67 C16.48 366.7 14.43 368.73 12.38 370.75 C10.99 372.13 9.6 373.51 8.21 374.89 C4.81 378.26 1.41 381.63 -2 385 C-6.14 383.37 -8.9 380.37 -11.96 377.27 C-12.55 376.68 -13.13 376.09 -13.74 375.49 C-15.67 373.56 -17.59 371.62 -19.52 369.68 C-20.85 368.34 -22.19 366.99 -23.53 365.65 C-27.06 362.12 -30.57 358.59 -34.09 355.05 C-37.68 351.44 -41.27 347.84 -44.87 344.23 C-51.92 337.16 -58.96 330.08 -66 323 C-70.57 326.82 -74.92 330.78 -79.12 335.01 C-79.69 335.57 -80.25 336.14 -80.84 336.72 C-82.68 338.57 -84.53 340.42 -86.37 342.27 C-87.66 343.57 -88.95 344.86 -90.24 346.15 C-93.62 349.53 -96.99 352.91 -100.37 356.3 C-103.82 359.76 -107.27 363.22 -110.72 366.68 C-117.49 373.45 -124.24 380.22 -131 387 C-135.59 383.16 -139.95 379.19 -144.15 374.95 C-144.7 374.4 -145.24 373.85 -145.8 373.29 C-147.52 371.57 -149.23 369.85 -150.94 368.12 C-152.11 366.95 -153.28 365.77 -154.46 364.59 C-157.31 361.73 -160.15 358.87 -163 356 C-161.37 351.82 -158.3 349.07 -155.16 346.01 C-154.56 345.42 -153.96 344.83 -153.35 344.22 C-152.05 342.95 -150.76 341.67 -149.46 340.4 C-147.41 338.39 -145.37 336.37 -143.32 334.35 C-137.52 328.6 -131.71 322.87 -125.88 317.14 C-122.31 313.64 -118.76 310.13 -115.21 306.61 C-113.85 305.27 -112.49 303.93 -111.13 302.6 C-109.23 300.74 -107.34 298.87 -105.45 296.99 C-104.88 296.44 -104.31 295.89 -103.72 295.32 C-100.06 291.63 -100.06 291.63 -99.82 288.99 C-101.62 285.96 -103.98 283.58 -106.47 281.11 C-107.04 280.54 -107.6 279.96 -108.19 279.36 C-110.07 277.46 -111.97 275.56 -113.86 273.67 C-115.18 272.35 -116.49 271.03 -117.8 269.71 C-120.55 266.95 -123.3 264.19 -126.06 261.44 C-129.6 257.9 -133.13 254.35 -136.65 250.79 C-139.35 248.06 -142.06 245.34 -144.78 242.63 C-146.08 241.32 -147.38 240.01 -148.68 238.7 C-150.49 236.87 -152.32 235.05 -154.15 233.24 C-154.68 232.69 -155.22 232.14 -155.77 231.58 C-157.29 230.09 -157.29 230.09 -160 228 C-164.58 228.49 -167.07 231.67 -170.15 234.8 C-170.75 235.41 -171.36 236.01 -171.98 236.64 C-173.98 238.64 -175.97 240.65 -177.95 242.66 C-179.34 244.05 -180.72 245.44 -182.11 246.83 C-185.75 250.48 -189.38 254.14 -193.02 257.81 C-196.72 261.55 -200.44 265.28 -204.16 269.01 C-211.45 276.33 -218.73 283.66 -226 291 C-228.86 289.7 -230.91 288.34 -233.12 286.11 C-233.7 285.53 -234.28 284.95 -234.87 284.35 C-235.49 283.73 -236.1 283.1 -236.73 282.46 C-237.37 281.82 -238.01 281.18 -238.67 280.52 C-240.7 278.48 -242.73 276.43 -244.75 274.38 C-246.13 272.99 -247.51 271.6 -248.89 270.21 C-252.26 266.81 -255.63 263.41 -259 260 C-255.18 255.43 -251.22 251.08 -246.99 246.88 C-246.71 246.6 -246.71 246.6 -245.28 245.16 C-243.43 243.32 -241.58 241.47 -239.73 239.63 C-238.43 238.34 -237.14 237.05 -235.85 235.76 C-232.47 232.38 -229.09 229.01 -225.7 225.63 C-222.24 222.18 -218.78 218.73 -215.32 215.28 C-208.55 208.51 -201.78 201.76 -195 195 C-196.63 190.86 -199.63 188.1 -202.73 185.04 C-203.32 184.45 -203.91 183.87 -204.51 183.26 C-206.44 181.33 -208.38 179.41 -210.32 177.48 C-211.66 176.15 -213.01 174.81 -214.35 173.47 C-217.88 169.94 -221.41 166.43 -224.95 162.91 C-228.56 159.32 -232.16 155.73 -235.77 152.13 C-242.84 145.08 -249.92 138.04 -257 131 C-253.1 126.33 -249.05 121.91 -244.73 117.63 C-244.16 117.06 -243.59 116.49 -243 115.91 C-241.21 114.13 -239.42 112.34 -237.62 110.56 C-236.4 109.34 -235.17 108.12 -233.95 106.9 C-230.97 103.93 -227.99 100.96 -225 98 C-217.89 103.8 -211.53 110.34 -205.07 116.84 C-203.82 118.08 -202.58 119.33 -201.33 120.58 C-198.07 123.84 -194.82 127.11 -191.56 130.37 C-188.23 133.71 -184.9 137.05 -181.56 140.39 C-175.04 146.92 -168.52 153.46 -162 160 C-157.86 158.37 -155.1 155.37 -152.04 152.27 C-151.45 151.68 -150.87 151.09 -150.26 150.49 C-148.33 148.56 -146.41 146.62 -144.48 144.68 C-143.15 143.34 -141.81 141.99 -140.47 140.65 C-136.94 137.12 -133.43 133.59 -129.91 130.05 C-126.32 126.44 -122.73 122.84 -119.13 119.23 C-112.08 112.16 -105.04 105.08 -98 98 C-101.85 93.4 -105.84 89.03 -110.1 84.8 C-110.65 84.25 -111.21 83.69 -111.78 83.12 C-113.54 81.37 -115.3 79.62 -117.06 77.88 C-118.25 76.7 -119.43 75.52 -120.61 74.34 C-122.79 72.17 -124.96 70.01 -127.14 67.84 C-129.77 65.23 -132.38 62.62 -135 60 C-135.95 59.05 -136.91 58.09 -137.86 57.14 C-145.24 49.76 -152.62 42.38 -160 35 C-158.7 32.14 -157.34 30.09 -155.11 27.88 C-154.53 27.3 -153.95 26.72 -153.35 26.13 C-152.73 25.51 -152.1 24.9 -151.46 24.27 C-150.82 23.63 -150.18 22.99 -149.52 22.33 C-147.48 20.3 -145.43 18.27 -143.38 16.25 C-141.99 14.87 -140.6 13.49 -139.21 12.11 C-135.81 8.74 -132.41 5.37 -129 2 C-124.9 3.62 -122.2 6.56 -119.19 9.66 C-118.62 10.24 -118.05 10.81 -117.47 11.41 C-116.23 12.66 -115 13.91 -113.77 15.17 C-111.83 17.15 -109.88 19.13 -107.92 21.1 C-102.37 26.72 -96.82 32.34 -91.29 37.98 C-87.9 41.43 -84.51 44.86 -81.1 48.29 C-79.81 49.6 -78.51 50.92 -77.23 52.24 C-75.43 54.08 -73.62 55.91 -71.81 57.73 C-71.28 58.28 -70.74 58.83 -70.2 59.4 C-68.69 60.89 -68.69 60.89 -66 63 C-61.42 62.51 -58.93 59.33 -55.85 56.2 C-55.25 55.59 -54.64 54.99 -54.02 54.36 C-52.02 52.36 -50.03 50.35 -48.05 48.34 C-46.66 46.95 -45.28 45.56 -43.89 44.17 C-40.25 40.52 -36.62 36.86 -32.98 33.19 C-29.28 29.45 -25.56 25.72 -21.84 21.99 C-14.55 14.67 -7.27 7.34 0 0 Z " fill="#03C2FE" transform="translate(322,63)"/>
<path d="M0 0 C7.11 5.8 13.47 12.34 19.93 18.84 C21.18 20.08 22.42 21.33 23.67 22.58 C26.93 25.84 30.18 29.11 33.44 32.37 C36.77 35.71 40.1 39.05 43.44 42.39 C49.96 48.92 56.48 55.46 63 62 C67.14 60.37 69.9 57.37 72.96 54.27 C73.55 53.68 74.13 53.09 74.74 52.49 C76.67 50.56 78.59 48.62 80.52 46.68 C81.85 45.34 83.19 43.99 84.53 42.65 C88.06 39.12 91.57 35.59 95.09 32.05 C98.68 28.44 102.27 24.84 105.87 21.23 C112.92 14.16 119.96 7.08 127 0 C129.86 1.3 131.91 2.66 134.12 4.89 C134.41 5.18 134.41 5.18 135.87 6.65 C136.49 7.27 137.1 7.9 137.73 8.54 C138.37 9.18 139.01 9.82 139.67 10.48 C141.7 12.52 143.73 14.57 145.75 16.62 C147.13 18.01 148.51 19.4 149.89 20.79 C153.26 24.19 156.63 27.59 160 31 C156.2 35.54 152.28 39.86 148.09 44.03 C147.53 44.58 146.97 45.14 146.4 45.71 C144.58 47.53 142.76 49.34 140.95 51.15 C139.68 52.42 138.41 53.69 137.14 54.96 C133.82 58.27 130.49 61.59 127.16 64.9 C123.76 68.29 120.37 71.69 116.97 75.08 C110.32 81.72 103.66 88.36 97 95 C102.8 102.11 109.34 108.47 115.84 114.93 C117.08 116.18 118.33 117.42 119.58 118.67 C122.84 121.93 126.11 125.18 129.37 128.44 C132.71 131.77 136.05 135.1 139.39 138.44 C145.92 144.96 152.46 151.48 159 158 C157.7 160.86 156.34 162.91 154.11 165.12 C153.82 165.41 153.82 165.41 152.35 166.87 C151.73 167.49 151.1 168.1 150.46 168.73 C149.82 169.37 149.18 170.01 148.52 170.67 C146.48 172.7 144.43 174.73 142.38 176.75 C140.99 178.13 139.6 179.51 138.21 180.89 C134.81 184.26 131.41 187.63 128 191 C123.9 189.38 121.2 186.44 118.19 183.34 C117.62 182.76 117.05 182.19 116.47 181.59 C115.23 180.34 114 179.09 112.77 177.83 C110.83 175.85 108.88 173.87 106.92 171.9 C101.37 166.28 95.82 160.66 90.29 155.02 C86.9 151.57 83.51 148.14 80.1 144.71 C78.81 143.4 77.51 142.08 76.23 140.76 C74.43 138.92 72.62 137.09 70.81 135.27 C70.28 134.72 69.74 134.17 69.2 133.6 C67.69 132.11 67.69 132.11 65 130 C60.42 130.49 57.93 133.67 54.85 136.8 C54.25 137.41 53.64 138.01 53.02 138.64 C51.02 140.64 49.03 142.65 47.05 144.66 C45.66 146.05 44.28 147.44 42.89 148.83 C39.25 152.48 35.62 156.14 31.98 159.81 C28.28 163.55 24.56 167.28 20.84 171.01 C13.55 178.33 6.27 185.66 -1 193 C-3.86 191.7 -5.91 190.34 -8.12 188.11 C-8.7 187.53 -9.28 186.95 -9.87 186.35 C-10.49 185.73 -11.1 185.1 -11.73 184.46 C-12.05 184.14 -12.05 184.14 -13.67 182.52 C-15.7 180.48 -17.73 178.43 -19.75 176.38 C-21.13 174.99 -22.51 173.6 -23.89 172.21 C-27.26 168.81 -30.63 165.41 -34 162 C-30.18 157.43 -26.22 153.08 -21.99 148.88 C-21.71 148.6 -21.71 148.6 -20.28 147.16 C-18.43 145.32 -16.58 143.47 -14.73 141.63 C-13.43 140.34 -12.14 139.05 -10.85 137.76 C-7.47 134.38 -4.09 131.01 -0.7 127.63 C2.76 124.18 6.22 120.73 9.68 117.28 C16.45 110.51 23.22 103.76 30 97 C28.37 92.86 25.37 90.1 22.27 87.04 C21.68 86.45 21.09 85.87 20.49 85.26 C18.56 83.33 16.62 81.41 14.68 79.48 C13.34 78.15 11.99 76.81 10.65 75.47 C7.12 71.94 3.59 68.43 0.05 64.91 C-3.56 61.32 -7.16 57.73 -10.77 54.13 C-17.84 47.08 -24.92 40.04 -32 33 C-28.1 28.33 -24.05 23.91 -19.73 19.63 C-19.16 19.06 -18.59 18.49 -18 17.91 C-16.21 16.13 -14.42 14.34 -12.62 12.56 C-11.4 11.34 -10.17 10.12 -8.95 8.9 C-5.97 5.93 -2.99 2.96 0 0 Z " fill="#05094A" transform="translate(97,161)"/>
<path d="M0 0 C4.14 1.63 6.9 4.63 9.96 7.73 C10.25 8.03 10.25 8.03 11.74 9.51 C13.67 11.44 15.59 13.38 17.52 15.32 C18.85 16.66 20.19 18.01 21.53 19.35 C25.06 22.88 28.57 26.41 32.09 29.95 C35.68 33.56 39.27 37.16 42.87 40.77 C49.92 47.84 56.96 54.92 64 62 C62.37 66.12 59.4 68.9 56.33 71.98 C55.75 72.57 55.17 73.15 54.57 73.76 C52.66 75.69 50.74 77.62 48.82 79.55 C47.49 80.89 46.15 82.23 44.82 83.58 C42.03 86.39 39.23 89.19 36.43 91.99 C32.84 95.59 29.27 99.2 25.69 102.82 C22.95 105.6 20.19 108.36 17.43 111.12 C16.11 112.45 14.79 113.78 13.47 115.12 C11.64 116.98 9.79 118.83 7.93 120.67 C7.66 120.95 7.66 120.95 6.28 122.36 C4.75 123.87 4.75 123.87 2 126 C-2.54 125.51 -5 122.4 -8.05 119.29 C-8.65 118.69 -9.24 118.1 -9.86 117.48 C-11.82 115.52 -13.78 113.54 -15.73 111.56 C-17.1 110.19 -18.46 108.83 -19.82 107.46 C-23.4 103.86 -26.98 100.26 -30.55 96.65 C-34.2 92.98 -37.86 89.31 -41.51 85.63 C-48.68 78.43 -55.84 71.22 -63 64 C-59.2 59.46 -55.28 55.14 -51.09 50.97 C-50.53 50.42 -49.97 49.86 -49.4 49.29 C-47.58 47.47 -45.76 45.66 -43.95 43.85 C-42.68 42.58 -41.41 41.31 -40.14 40.04 C-36.82 36.73 -33.49 33.41 -30.16 30.1 C-26.76 26.71 -23.37 23.31 -19.97 19.92 C-13.32 13.28 -6.66 6.64 0 0 Z " fill="#FDFDFE" transform="translate(256,193)"/>
<path d="M0 0 C0 4.02 -1.92 5.49 -4.56 8.25 C-5.07 8.79 -5.57 9.33 -6.1 9.88 C-11.5 15.57 -17.02 21.15 -22.55 26.72 C-23.6 27.78 -24.65 28.85 -25.7 29.91 C-27.19 31.42 -28.69 32.92 -30.2 34.43 C-31.07 35.31 -31.95 36.19 -32.85 37.09 C-35 39 -35 39 -37 39 C-37.22 39.54 -37.43 40.09 -37.66 40.65 C-39.46 43.8 -41.91 46.13 -44.5 48.62 C-44.75 48.87 -44.75 48.87 -46.01 50.11 C-47.34 51.41 -48.67 52.71 -50 54 C-50.66 54.66 -51.32 55.32 -52 56 C-52 53 -52 53 -49.59 50.33 C-48.52 49.3 -47.45 48.27 -46.38 47.25 C-45.26 46.17 -44.15 45.09 -43.04 44 C-42.77 43.74 -42.77 43.74 -41.43 42.43 C-39.76 40.76 -38.24 39.01 -36.75 37.19 C-34.79 34.81 -32.71 32.82 -30.36 30.83 C-25.86 26.93 -21.64 22.79 -17.44 18.56 C-16.72 17.85 -16.01 17.14 -15.27 16.4 C-11.15 12.28 -7.22 8.06 -3.43 3.64 C-2.34 2.39 -1.18 1.18 0 0 Z " fill="#D3F6FF" transform="translate(438,201)"/>
<path d="M0 0 C0 8.79 -16.14 20.24 -22.19 26.31 C-22.66 26.79 -23.13 27.26 -23.62 27.75 C-38.61 42.8 -38.61 42.8 -43 45 C-40.31 39.01 -35.22 35.02 -30.31 30.81 C-22.52 24.08 -15.27 16.66 -8.6 8.82 C-5.89 5.73 -2.95 2.87 0 0 Z " fill="#BAF7FF" transform="translate(346,102)"/>
<path d="M0 0 C0.66 0.66 1.32 1.32 2 2 C-8.56 12.56 -19.12 23.12 -30 34 C-30.66 33.34 -31.32 32.68 -32 32 C-21.44 21.44 -10.88 10.88 0 0 Z " fill="#1D215C" transform="translate(97,161)"/>
</svg>
